# xmcd
#
# Track frame offsets:
#	150
#	15391
#	31398
#	42111
#	54801
#	72987
#	82249
#	97024
#	118174
#	129874
#	141799
#	155680
#
# Disc length: 2268 seconds
#
# Revision: 0
# Processed by: cddbd v1.4PL0 Copyright (c) Steve Scherf et al.
# Submitted via: dBpowerAMP V4.0
#
DISCID=9c08da0c
DTITLE=Legends of Blues - Ladies of the Blues, Volume 1
DYEAR=1900
DGENRE=Blues
TTITLE0=Amtrak Blues, '30s
TTITLE1=Blues Ain't Nothin but a Woman Cryin' For Her Man
TTITLE2=Misty Blue, '40s
TTITLE3=You Got Me Running, '50s
TTITLE4=I Love You Porgy, '50s
TTITLE5=What Kind of Man Is This '50s
TTITLE6=Prisoner of Love '30s
TTITLE7=Too Much in Love to Care '40s
TTITLE8=Summertime, '50s
TTITLE9=You Lose a Good Thing
TTITLE10=Old Rockin' Chair, 30s
TTITLE11=Second Fiddle, 1925
EXTD=Chilmark Music B-031
EXTT0=
EXTT1=
EXTT2=
EXTT3=
EXTT4=
EXTT5=
EXTT6=
EXTT7=
EXTT8=
EXTT9=
EXTT10=
EXTT11=
PLAYORDER=
